<?xml version="1.0" standalone="no"?>
<!DOCTYPE svg PUBLIC "-//W3C//DTD SVG 20010904//EN"
 "http://www.w3.org/TR/2001/REC-SVG-20010904/DTD/svg10.dtd">
<svg version="1.0" xmlns="http://www.w3.org/2000/svg"
 width="400.000000pt" height="400.000000pt" viewBox="0 0 400.000000 400.000000"
 preserveAspectRatio="xMidYMid meet">
<metadata>
Created by potrace 1.15, written by Peter Selinger 2001-2017
</metadata>
<g transform="translate(0.000000,400.000000) scale(0.100000,-0.100000)"
fill="#000000" stroke="none">
<path d="M1770 3932 c-14 -1 -56 -10 -94 -18 -38 -8 -83 -12 -100 -9 -20 3
-24 2 -13 -3 14 -6 -2 -13 -60 -26 -43 -10 -98 -27 -122 -37 -24 -11 -54 -17
-65 -14 -13 4 -17 3 -9 -2 9 -6 1 -13 -25 -22 -20 -7 -59 -24 -85 -37 -27 -13
-54 -21 -59 -17 -7 4 -8 1 -3 -7 5 -9 2 -10 -11 -6 -11 3 -26 1 -34 -5 -12 -8
-9 -9 10 -4 14 3 0 -8 -30 -26 -30 -17 -60 -32 -67 -32 -7 0 -9 -5 -6 -10 4
-6 -1 -8 -11 -4 -11 5 -15 3 -10 -5 5 -8 2 -9 -10 -5 -10 4 -15 3 -11 -3 3 -5
-5 -14 -17 -21 -13 -6 -33 -20 -44 -31 -12 -10 -27 -18 -35 -16 -7 2 -13 -2
-14 -8 0 -15 -61 -65 -82 -68 -10 -2 -18 -7 -19 -12 -1 -11 -204 -218 -204
-208 0 3 -7 1 -15 -6 -8 -7 -12 -16 -9 -21 6 -11 -56 -85 -68 -82 -4 2 -5 -3
-2 -10 2 -7 -10 -29 -28 -48 -35 -38 -38 -43 -38 -60 0 -5 -4 -7 -10 -4 -6 4
-7 -1 -3 -11 4 -10 2 -15 -4 -11 -5 3 -10 1 -10 -6 0 -23 -80 -157 -88 -150
-4 5 -5 3 -1 -4 9 -15 -35 -104 -47 -96 -6 3 -7 1 -3 -5 11 -18 -15 -96 -26
-80 -6 9 -7 5 -3 -9 3 -12 -1 -37 -9 -55 -9 -18 -26 -78 -39 -133 -14 -55 -27
-93 -29 -85 -3 8 -3 3 -1 -12 2 -15 -3 -67 -11 -117 -12 -66 -14 -122 -9 -210
3 -65 2 -127 -2 -137 -10 -24 -8 -56 11 -172 8 -52 13 -108 10 -125 -4 -20 -3
-25 2 -14 6 14 12 1 21 -50 8 -37 23 -93 33 -123 11 -30 21 -74 23 -97 2 -24
9 -51 15 -60 8 -15 9 -12 5 12 -5 28 -4 27 9 -6 7 -19 23 -54 35 -77 12 -24
19 -48 15 -54 -4 -6 -3 -8 3 -5 6 4 14 0 17 -9 9 -24 7 -31 -4 -14 -15 23 -11
-2 5 -30 7 -14 17 -24 20 -22 10 5 45 -50 39 -60 -3 -4 2 -21 11 -38 18 -35
31 -41 15 -7 -9 19 -9 20 2 3 7 -10 25 -34 40 -53 15 -20 25 -39 22 -44 -7
-11 26 -60 36 -54 10 6 52 -44 45 -55 -3 -4 3 -14 13 -21 16 -13 16 -12 3 6
-7 11 3 2 22 -20 20 -21 34 -42 32 -46 -3 -3 4 -14 15 -24 11 -10 20 -14 20
-10 0 4 9 0 20 -10 11 -10 18 -21 15 -25 -5 -8 39 -52 46 -46 2 3 22 -11 44
-31 22 -19 31 -29 20 -22 -18 13 -19 13 -6 -3 7 -10 18 -15 23 -12 12 8 59
-36 52 -47 -3 -5 1 -6 9 -3 8 3 18 0 23 -7 5 -8 3 -10 -6 -4 -8 5 -11 4 -6 -3
4 -6 14 -8 23 -5 12 5 14 3 8 -7 -5 -8 -4 -11 1 -7 12 7 100 -51 97 -64 -2 -4
5 -5 14 -2 11 4 14 3 9 -5 -5 -8 -1 -10 10 -5 13 5 15 3 9 -7 -5 -8 -4 -11 3
-6 13 8 84 -38 74 -48 -3 -4 2 -4 12 0 15 6 17 4 11 -6 -5 -9 -4 -11 4 -6 6 4
21 4 32 1 17 -6 19 -9 8 -17 -11 -8 -10 -9 3 -4 10 3 39 -5 65 -18 27 -13 67
-30 91 -37 30 -9 39 -15 30 -22 -9 -6 -7 -7 6 -3 10 4 51 -5 90 -18 39 -13
104 -30 145 -37 57 -11 68 -15 50 -21 -16 -5 -12 -6 12 -3 20 3 85 -1 144 -10
138 -19 272 -19 411 0 60 9 127 14 149 11 27 -4 32 -3 15 2 -20 6 -11 10 50
21 41 8 107 24 145 37 39 13 79 22 90 19 11 -3 14 -2 7 1 -14 6 138 75 170 77
9 1 15 4 12 8 -6 11 54 32 67 23 8 -5 9 -3 4 6 -6 10 -4 12 9 7 9 -4 15 -3 12
2 -8 12 42 43 56 35 7 -5 8 -3 3 6 -6 10 -4 12 9 7 11 -5 15 -3 10 5 -5 8 -2
9 9 5 10 -4 16 -2 14 5 -1 6 4 13 12 16 9 3 11 0 6 -8 -6 -9 -4 -11 4 -6 7 5
10 10 7 13 -8 9 53 55 64 48 6 -4 9 -1 8 6 -2 6 3 14 11 17 9 3 11 0 6 -9 -5
-8 -4 -11 1 -6 5 5 9 12 9 16 0 12 72 72 83 69 6 -2 9 0 9 4 -3 11 45 58 54
53 4 -3 11 0 15 6 5 8 2 10 -7 5 -8 -4 -5 -1 5 8 10 8 23 13 28 10 5 -3 7 -2
6 3 -2 5 28 43 66 84 39 40 63 65 55 54 -13 -18 -13 -19 3 -6 10 7 16 17 13
21 -7 11 35 61 45 55 10 -6 20 7 25 34 5 26 46 82 56 75 10 -6 21 13 24 40 4
29 45 97 56 90 5 -3 6 3 2 12 -4 11 -3 15 5 10 10 -6 29 29 24 46 -1 4 9 29
22 55 13 26 30 65 37 85 9 27 16 34 22 25 6 -8 7 -6 3 7 -4 10 5 46 18 80 13
33 30 87 37 120 9 42 15 53 20 40 4 -11 6 -1 5 26 0 25 8 81 18 125 37 164 32
531 -9 694 -9 34 -14 76 -11 94 4 21 3 25 -2 13 -6 -14 -11 -5 -21 40 -7 33
-24 87 -37 120 -13 34 -22 70 -18 80 5 16 4 16 -5 4 -8 -12 -11 -12 -11 -1 0
7 -14 43 -31 79 -18 36 -33 75 -34 86 -4 36 -5 37 -14 32 -11 -7 -23 22 -14
36 3 6 2 8 -4 5 -12 -8 -85 104 -78 121 3 7 1 11 -4 8 -5 -3 -21 11 -37 31
-15 20 -22 33 -15 29 10 -7 11 -4 2 13 -12 22 -27 30 -16 9 4 -7 0 -4 -9 6 -8
10 -13 23 -9 29 3 6 1 7 -5 3 -10 -6 -26 10 -27 26 0 3 -4 10 -9 15 -5 5 -6 2
-1 -7 6 -11 5 -12 -4 -4 -7 6 -14 20 -15 30 -2 11 -7 19 -12 19 -18 0 -34 17
-28 27 4 6 2 8 -3 5 -12 -7 -33 14 -37 35 -3 22 -17 39 -26 33 -12 -7 -90 63
-87 78 1 6 -4 12 -10 13 -7 1 -18 2 -24 3 -5 0 -7 6 -3 13 4 6 3 8 -3 5 -10
-7 -42 21 -41 36 0 5 -4 12 -8 15 -4 4 -4 1 0 -5 11 -19 -6 -15 -34 8 l-25 20
25 -12 c18 -8 22 -8 14 0 -6 6 -21 13 -33 16 -29 5 -53 24 -45 36 3 5 -3 6
-12 2 -11 -4 -15 -3 -10 5 3 6 1 14 -5 18 -8 5 -9 3 -4 -6 5 -8 3 -11 -6 -8
-8 3 -13 10 -12 16 2 7 -4 9 -14 5 -12 -5 -14 -3 -8 7 5 8 4 11 -3 6 -6 -3
-26 4 -45 17 -19 13 -49 29 -66 37 -17 7 -28 17 -24 23 3 5 1 7 -5 4 -5 -4
-32 4 -59 17 -26 13 -65 30 -85 37 -26 9 -34 16 -25 22 7 5 4 6 -10 2 -13 -3
-40 2 -65 13 -24 11 -78 28 -121 38 -58 13 -74 20 -60 26 11 5 7 6 -13 2 -17
-3 -62 2 -100 11 -53 13 -126 17 -314 19 -135 1 -256 0 -270 -2z m46 -27 c-15
-8 -37 -15 -47 -15 -11 0 -19 -4 -19 -10 0 -16 19 -12 71 16 l48 27 213 -6
c181 -5 229 -9 323 -31 155 -37 215 -55 212 -66 -1 -5 7 -16 18 -24 18 -13 18
-15 3 -16 -10 0 -22 9 -28 20 -13 24 -110 55 -200 64 -49 5 -61 4 -47 -4 9 -6
15 -15 12 -21 -3 -5 0 -6 8 -3 8 3 24 -12 42 -41 16 -25 32 -45 36 -45 4 0 16
-16 28 -36 12 -20 34 -40 51 -46 17 -5 35 -19 41 -29 5 -10 13 -18 17 -18 4 1
18 1 32 0 20 -1 22 -3 10 -11 -13 -8 -13 -10 2 -10 10 0 22 -9 28 -20 14 -26
76 -60 67 -37 -10 26 4 27 47 5 22 -12 57 -23 76 -24 34 -1 34 -1 8 9 -14 6
-29 17 -32 26 -8 24 -29 55 -43 64 -7 4 -13 15 -13 24 0 11 4 13 13 6 7 -6 29
-5 56 2 38 10 42 13 25 20 -10 5 -28 9 -39 9 -11 1 -21 9 -23 19 -3 15 1 17
22 11 16 -4 26 -2 26 4 0 7 13 4 30 -6 16 -9 30 -23 30 -29 0 -7 6 -13 13 -13
7 0 22 -7 33 -15 17 -13 16 -14 -18 -8 -25 4 -38 2 -38 -6 0 -6 8 -11 18 -11
10 0 31 -14 47 -30 16 -17 35 -28 42 -26 7 3 15 1 18 -3 2 -5 17 -12 32 -15
48 -11 141 -60 146 -78 3 -9 15 -22 28 -28 l24 -13 -24 27 c-14 14 -20 26 -15
26 5 0 48 -36 94 -81 47 -45 77 -76 68 -69 -15 10 -18 10 -18 -3 0 -8 14 -21
30 -29 20 -8 30 -20 30 -35 0 -12 13 -34 29 -50 22 -22 26 -33 20 -51 -6 -15
-13 -20 -26 -15 -10 4 -12 8 -5 11 7 2 8 10 3 20 -5 9 -15 33 -24 52 -15 36
-87 91 -74 57 10 -26 2 -21 -50 30 -42 41 -48 44 -51 25 -2 -11 -10 -23 -18
-26 -22 -8 -87 21 -81 37 3 7 -7 24 -21 38 -21 19 -24 20 -19 5 6 -15 4 -17
-13 -13 -11 3 -20 1 -20 -4 0 -5 11 -11 25 -15 32 -8 32 -28 -1 -43 -23 -10
-24 -14 -13 -28 13 -15 12 -15 -8 -5 -12 7 -33 12 -47 12 -14 0 -26 5 -26 11
0 6 -10 9 -22 8 -13 -2 -29 0 -36 5 -24 15 -23 0 3 -28 26 -28 34 -46 13 -28
-7 6 -25 8 -41 5 -30 -6 -47 -23 -23 -23 8 0 18 -5 21 -10 4 -7 -2 -9 -19 -4
-16 4 -26 2 -26 -5 0 -16 -26 -13 -44 5 -9 8 -21 14 -28 12 -6 -2 4 -14 23
-25 22 -14 38 -19 48 -13 10 5 26 3 41 -4 44 -23 90 -35 96 -25 3 5 0 9 -5 9
-6 0 -11 6 -11 12 0 7 11 1 24 -12 15 -16 20 -29 14 -36 -5 -8 -2 -14 9 -20
24 -10 63 -12 63 -2 0 16 18 8 23 -11 6 -26 96 -40 109 -17 5 9 18 16 28 16
11 0 20 4 20 10 0 5 18 9 40 7 45 -2 52 -14 15 -23 -14 -3 -23 -10 -20 -14 3
-5 13 -6 24 -3 22 6 38 -26 19 -38 -7 -4 -9 -11 -6 -15 4 -3 15 1 24 10 14 15
19 15 38 3 30 -20 34 -67 7 -74 -26 -7 -26 -15 -1 -31 22 -13 103 -6 94 9 -3
5 5 8 18 6 18 -2 24 3 26 26 2 15 8 27 13 27 13 0 11 47 -2 72 -8 14 -8 18 0
14 6 -4 29 -38 52 -76 34 -57 41 -78 41 -122 0 -99 -4 -113 -32 -113 -18 0
-24 -5 -22 -17 2 -13 -2 -16 -13 -12 -9 4 -14 13 -10 21 3 11 1 13 -10 9 -8
-3 -15 -2 -15 2 1 10 27 43 34 43 3 0 14 3 25 7 15 6 16 9 6 19 -11 10 -19 8
-39 -8 -14 -11 -26 -25 -26 -30 0 -13 -26 -40 -32 -33 -3 2 -18 -2 -34 -11
-34 -18 -51 -19 -56 -4 -6 17 -68 18 -68 1 0 -9 -10 -12 -32 -10 -28 3 -32 0
-40 -30 -9 -35 -34 -40 -31 -6 2 22 -14 54 -27 54 -5 0 -7 -13 -4 -29 4 -16 1
-32 -5 -35 -10 -7 -16 12 -12 42 3 18 -22 24 -53 13 -24 -10 -25 -13 -15 -32
13 -25 4 -105 -13 -115 -8 -5 -9 -1 -4 11 4 11 0 25 -10 36 -17 18 -18 18 -36
-11 l-18 -31 40 -48 c45 -53 46 -56 25 -77 -8 -9 -15 -20 -15 -27 0 -6 6 -2
14 9 17 23 23 18 31 -24 5 -29 0 -39 -40 -80 l-46 -47 -22 29 c-13 16 -30 27
-38 24 -17 -6 -35 11 -41 38 -2 12 -10 18 -23 16 -11 -2 -33 -4 -50 -5 -31 -2
-41 -19 -44 -76 -1 -18 3 -22 17 -19 13 4 17 -2 19 -29 3 -51 41 -85 57 -50 3
6 4 3 1 -8 -4 -15 3 -25 25 -38 24 -15 30 -25 30 -54 0 -39 21 -90 51 -122 11
-12 17 -26 14 -32 -4 -5 -1 -17 7 -26 9 -12 10 -17 2 -20 -7 -2 -10 -13 -7
-23 3 -11 10 -17 15 -14 11 7 50 -25 43 -35 -2 -4 0 -13 6 -21 7 -13 9 -12 9
3 0 20 15 23 26 5 4 -6 2 -14 -5 -16 -9 -3 -9 -7 1 -19 7 -9 13 -29 14 -44 1
-24 -2 -29 -22 -29 -29 0 -31 -15 -5 -30 29 -15 30 -14 37 40 7 56 24 68 24
17 0 -26 8 -41 37 -67 20 -19 44 -34 52 -35 9 0 22 -4 29 -9 8 -4 12 -1 13 11
0 16 1 16 8 -2 5 -11 7 -23 5 -26 -6 -10 -94 13 -94 25 0 6 -11 16 -25 23 -14
6 -25 7 -25 2 0 -5 6 -12 14 -15 8 -3 16 -14 19 -25 5 -18 4 -18 -24 2 -18 12
-37 18 -48 14 -27 -8 -80 21 -91 50 -11 30 -30 33 -30 6 0 -28 -16 -34 -39
-15 -14 12 -18 25 -15 43 4 19 -3 38 -28 71 -40 53 -71 117 -64 129 3 5 -3 11
-14 14 -11 3 -20 10 -20 16 0 8 6 9 19 2 10 -6 21 -8 25 -4 8 8 -4 55 -17 68
-7 7 -8 6 -3 -2 9 -16 -27 -17 -55 -2 -17 9 -18 13 -7 27 11 13 11 15 -4 9
-17 -6 -41 14 -36 31 2 6 -6 18 -17 26 -20 15 -19 15 6 16 17 0 30 -8 39 -24
17 -33 40 -40 56 -19 18 24 17 42 -1 49 -22 9 -18 26 4 19 11 -3 22 -2 25 3 7
12 -40 79 -64 92 -12 6 -18 15 -15 21 8 13 -1 11 -26 -3 -17 -11 -22 -10 -33
4 -7 10 -16 15 -20 11 -4 -4 -4 0 0 10 4 11 13 16 24 12 9 -3 22 0 28 8 9 10
4 13 -26 15 -20 2 -40 9 -45 17 -4 8 -14 20 -22 28 -9 10 -10 18 -3 25 13 13
-19 65 -35 55 -6 -4 -7 -1 -2 7 5 8 1 18 -11 27 -15 11 -16 15 -5 22 17 11 23
88 8 112 -8 13 -8 24 2 42 10 18 10 30 2 45 -11 21 -6 52 9 52 5 0 12 -9 15
-20 9 -29 28 -13 20 18 -5 22 -4 24 9 13 9 -8 16 -28 17 -45 1 -29 1 -30 8 -6
6 21 13 25 43 25 24 0 34 4 31 13 -3 6 1 12 9 12 10 0 15 11 16 30 0 17 -4 30
-9 30 -5 0 -9 -11 -9 -25 0 -27 -7 -30 -30 -14 -11 8 -12 12 -2 16 6 2 12 14
12 24 0 27 -16 15 -24 -17 -5 -18 -3 -30 6 -35 21 -13 2 -22 -21 -9 -12 6 -21
18 -21 28 0 13 -2 14 -9 3 -6 -9 -10 -10 -16 -2 -4 7 -2 18 4 24 5 7 8 28 6
46 -5 40 -15 54 -15 21 0 -18 -3 -20 -13 -11 -18 14 -62 -22 -72 -59 -5 -19
-4 -21 4 -10 8 12 12 10 19 -10 5 -14 6 -27 3 -30 -13 -9 -20 -39 -11 -45 6
-4 10 -13 10 -22 0 -11 -8 -14 -30 -11 -27 4 -30 2 -24 -16 7 -21 7 -21 -15
-1 -13 11 -18 21 -12 23 6 2 8 8 5 14 -10 15 -13 88 -4 88 4 0 7 13 7 30 0 24
-5 30 -28 35 -16 4 -33 4 -39 0 -6 -3 -7 0 -4 9 3 9 13 16 21 16 8 0 11 5 8
10 -3 6 -35 10 -71 10 -49 0 -66 4 -70 15 -4 10 -13 13 -24 10 -11 -4 -22 1
-28 11 -6 11 -25 17 -58 19 -41 3 -49 7 -48 23 0 14 -5 17 -23 14 -13 -3 -23
1 -23 7 0 7 -4 10 -9 7 -10 -6 -71 15 -71 25 0 4 -10 9 -22 13 -13 3 -52 32
-87 65 -35 32 -70 57 -78 54 -7 -3 -13 0 -13 6 0 6 17 11 38 12 32 0 34 2 15
9 -14 6 -34 5 -53 -2 -33 -11 -54 -3 -30 12 8 6 10 10 4 10 -5 0 -19 -7 -30
-15 -22 -16 -64 -20 -64 -5 0 5 11 12 25 16 27 7 32 23 13 42 -7 7 -8 12 -2
12 5 0 15 -5 22 -12 7 -7 12 -9 12 -4 0 14 -29 36 -48 36 -10 0 -29 11 -42 25
-25 26 -40 22 -61 -17 -10 -18 -7 -19 28 -13 23 3 31 2 20 -3 -16 -6 -16 -10
-5 -19 7 -6 24 -14 36 -18 l24 -7 -21 -15 c-12 -8 -21 -22 -21 -31 0 -13 -2
-14 -9 -3 -7 11 -13 9 -30 -8 -11 -11 -29 -21 -38 -21 -9 0 -34 -12 -56 -27
-32 -22 -40 -24 -48 -12 -14 23 -11 31 11 24 11 -4 20 -2 20 4 0 6 -13 11 -30
11 -32 0 -33 -2 -24 -37 9 -31 32 -36 65 -12 16 11 34 17 40 14 6 -4 21 3 34
15 13 12 29 19 35 15 6 -4 18 -1 27 7 15 12 14 10 0 -19 -10 -18 -17 -38 -17
-46 0 -8 -11 -22 -25 -31 -28 -18 -34 -46 -9 -46 8 0 13 4 10 9 -3 5 1 14 9
21 11 9 19 9 35 -3 14 -9 17 -17 11 -22 -18 -10 -12 -25 7 -18 15 6 15 5 3
-10 -7 -9 -25 -17 -39 -17 -36 0 -52 -26 -40 -67 11 -39 4 -53 -24 -53 -15 0
-18 4 -11 13 13 18 1 72 -17 72 -16 0 -17 17 -5 48 6 15 4 16 -20 7 -23 -9
-26 -8 -21 5 6 17 -20 21 -43 6 -12 -8 -66 1 -78 13 -7 6 29 68 47 83 19 15 7
28 -17 18 -10 -4 -33 -9 -51 -10 -25 -2 -32 2 -30 14 2 10 12 15 28 14 24 -2
24 -2 -3 8 -33 13 -59 5 -51 -14 3 -8 -2 -17 -10 -20 -9 -4 -16 -17 -16 -31 0
-27 -15 -42 -25 -26 -4 6 2 29 13 50 10 22 17 42 14 45 -10 10 -32 5 -32 -7 0
-7 -14 -24 -31 -38 l-30 -26 21 -19 c20 -18 21 -18 14 0 -5 13 -4 16 4 11 7
-4 12 -14 12 -21 0 -11 -8 -13 -30 -8 -34 6 -43 -15 -10 -24 11 -3 20 -11 20
-18 0 -8 8 -16 18 -18 15 -4 15 -5 0 -6 -9 0 -24 6 -32 15 -17 17 -19 14 -10
-10 3 -9 12 -16 19 -16 7 0 15 -9 18 -19 4 -15 -4 -21 -39 -31 -41 -12 -47
-11 -78 11 -19 12 -40 38 -47 56 -15 38 -20 39 -54 17 -28 -18 -32 -51 -10
-80 8 -10 15 -31 15 -46 0 -16 5 -28 10 -28 6 0 10 7 10 15 0 8 5 15 10 15 13
0 13 -27 0 -35 -19 -12 1 -25 40 -25 21 0 45 6 52 13 8 6 24 21 37 32 l24 20
-8 -25 c-21 -65 -23 -89 -8 -83 8 3 12 13 9 22 -4 10 1 8 12 -6 19 -22 32 -26
65 -24 11 1 16 6 11 14 -5 9 -4 9 5 1 17 -16 1 -46 -39 -74 -16 -12 -30 -30
-30 -41 0 -10 -7 -19 -15 -19 -8 0 -19 -9 -25 -20 -6 -11 -19 -20 -29 -20 -11
0 -21 -6 -24 -14 -3 -7 -22 -17 -42 -20 -21 -4 -47 -18 -59 -31 -12 -13 -49
-34 -82 -46 -32 -12 -63 -25 -68 -30 -14 -12 -46 9 -46 30 0 11 -6 21 -14 24
-14 6 -24 49 -28 118 -1 26 -6 35 -15 32 -7 -3 -13 0 -13 6 0 6 5 11 10 11 6
0 8 12 5 28 -5 23 -4 24 4 6 5 -12 14 -25 20 -29 17 -10 13 22 -5 50 -15 24
-17 24 -40 7 -13 -9 -24 -23 -24 -29 0 -7 -4 -13 -9 -13 -14 0 0 70 21 109 16
27 17 36 6 43 -9 6 -7 8 7 6 12 -2 19 2 17 10 -1 8 2 11 7 8 5 -4 13 -1 16 5
12 19 -3 21 -39 4 -19 -9 -40 -14 -45 -10 -14 8 -14 32 0 37 7 2 13 16 15 32
2 24 1 26 -14 14 -9 -7 -22 -20 -29 -28 -11 -13 -12 -12 -13 8 0 25 -10 28
-28 10 -10 -10 -15 -10 -22 2 -12 19 -14 16 -35 -60 -21 -79 -35 -106 -74
-151 -16 -19 -39 -44 -49 -57 -13 -15 -37 -26 -71 -31 -49 -8 -50 -7 -60 22
-8 20 -7 35 0 49 11 21 -1 37 -28 38 -6 0 -9 9 -6 20 3 11 9 20 14 20 5 0 9 7
9 16 0 8 3 13 8 11 4 -3 8 10 9 29 3 35 -10 46 -21 18 -4 -9 -9 -14 -13 -10
-3 3 2 16 13 28 16 18 17 21 2 15 -14 -5 -16 -1 -13 23 4 37 11 47 37 61 17 9
20 9 16 -3 -4 -8 3 -20 14 -27 19 -12 25 -9 58 30 34 40 38 42 53 27 22 -22
85 -32 103 -17 8 6 17 9 21 6 3 -4 -2 -9 -11 -13 -9 -3 -16 -10 -16 -15 0 -16
17 -10 41 15 13 13 34 26 47 30 12 4 22 11 22 15 0 13 62 71 76 71 7 0 16 9
19 20 4 12 16 20 28 21 12 0 16 3 10 6 -19 7 -16 20 7 26 34 9 23 26 -12 18
-58 -13 -133 -61 -97 -61 10 0 10 -3 2 -11 -17 -17 -37 -1 -22 17 6 7 8 22 4
31 -6 17 -7 17 -21 -1 -7 -11 -17 -17 -20 -13 -11 11 86 127 107 127 6 0 7 4
4 10 -3 6 1 7 10 4 10 -4 33 6 60 25 24 17 46 31 50 31 4 0 23 14 42 30 18 17
39 30 46 30 8 0 7 -4 -3 -11 -11 -8 -8 -9 15 -5 17 4 42 8 57 11 15 2 36 9 47
14 28 15 36 14 21 -4 -10 -12 -10 -15 3 -15 9 0 24 10 34 23 23 27 81 59 94
52 4 -3 19 1 31 9 26 16 145 49 156 42 4 -2 30 0 57 4 28 4 52 4 56 -1 3 -5
21 -3 42 6 20 8 48 15 63 15 22 0 25 -2 14 -15 -16 -19 0 -19 36 0 16 8 45 15
64 15 19 0 45 3 58 6 18 5 20 9 11 20 -7 8 -20 12 -30 9 -14 -5 -19 -1 -19 11
0 13 -6 15 -29 11 -15 -3 -33 -1 -40 6 -8 8 -11 8 -11 -1 0 -7 -7 -12 -15 -12
-24 0 -17 26 10 38 18 8 25 8 25 1 0 -8 4 -8 13 -1 6 5 21 12 32 15 50 12 -39
6 -112 -8 -100 -19 -114 -19 -89 0 20 15 20 15 0 15 -12 0 -24 -3 -27 -6 -11
-11 -201 -4 -208 8 -4 6 -11 8 -16 5 -15 -9 -47 18 -41 34 3 8 32 25 64 38 33
12 68 26 79 31 11 4 45 13 75 19 30 6 84 17 120 25 86 19 101 19 66 1z m-586
-162 l-22 -28 49 -8 c26 -5 52 -12 56 -16 10 -10 -21 -43 -33 -36 -4 3 -13 -2
-20 -10 -11 -13 -6 -14 36 -9 54 6 67 11 59 24 -2 4 37 8 87 9 74 1 90 -1 80
-11 -7 -7 -30 -13 -53 -13 -22 -1 -44 -7 -49 -15 -4 -7 -15 -10 -25 -6 -9 3
-22 3 -28 -1 -13 -8 -113 -31 -159 -36 -15 -2 -29 1 -31 7 -2 5 -49 -20 -105
-57 -57 -37 -105 -67 -108 -67 -4 0 -25 -14 -48 -32 -22 -18 -33 -23 -23 -12
9 11 17 27 17 35 0 19 28 59 41 59 6 0 7 -9 4 -21 -7 -20 -4 -19 41 6 27 15
60 37 75 49 22 19 24 26 16 50 -8 23 -6 31 8 39 44 24 76 77 38 62 -14 -5 -15
-4 -6 6 9 9 85 45 121 58 2 0 -6 -11 -18 -26z m720 -653 c0 -5 6 -10 13 -10
26 0 40 -17 29 -36 -10 -18 5 -44 26 -44 16 0 21 26 9 40 -9 10 -9 11 2 5 7
-4 28 -11 46 -15 26 -6 36 -3 49 11 21 25 34 24 38 -3 2 -12 9 -23 17 -26 8
-3 11 0 7 6 -3 6 -2 13 3 16 5 4 12 2 15 -3 4 -5 2 -12 -4 -16 -5 -3 -10 -15
-10 -27 0 -17 4 -19 28 -14 36 9 74 8 85 -3 5 -5 -3 -12 -20 -15 -17 -4 -34
-17 -39 -29 -6 -12 -9 -17 -8 -10 2 7 -3 10 -13 6 -12 -5 -15 -2 -10 9 4 12 1
14 -13 11 -10 -3 -21 0 -24 6 -4 6 -13 11 -19 11 -8 0 -8 -3 1 -9 10 -6 5 -11
-17 -21 -37 -15 -65 1 -56 31 4 11 2 19 -4 19 -5 0 -16 3 -25 6 -13 5 -16 -1
-16 -25 0 -17 -5 -31 -11 -31 -6 0 -9 9 -6 20 6 23 -3 26 -22 8 -8 -7 -11 -8
-8 -3 3 6 1 17 -4 25 -8 11 -12 12 -15 3 -3 -7 -11 -10 -18 -7 -6 2 -25 -9
-41 -26 -16 -16 -33 -30 -37 -30 -5 0 -22 -9 -37 -21 -42 -31 -66 -15 -66 43
0 29 -4 42 -12 41 -15 -3 -15 -1 -7 22 4 9 24 23 45 32 22 8 39 19 39 23 0 8
33 22 57 24 6 1 15 5 19 9 11 10 34 9 34 -3z m-917 -797 c-32 -64 -76 -135
-98 -160 l-40 -45 -1 32 c-1 38 -38 80 -55 63 -9 -9 -17 -7 -32 8 -23 21 -37
24 -37 9 0 -5 7 -10 16 -10 12 0 15 -6 10 -24 -4 -15 -1 -26 7 -29 6 -2 8 -8
4 -13 -4 -5 -12 -2 -17 6 -5 8 -12 11 -15 8 -4 -4 0 -17 8 -29 9 -11 13 -28
10 -35 -11 -28 13 -12 28 19 14 28 59 52 59 31 0 -18 -66 -74 -87 -74 -16 0
-23 -6 -23 -20 0 -11 -4 -20 -8 -20 -10 0 -42 54 -42 73 0 19 26 68 32 61 3
-2 8 5 11 16 5 19 3 20 -11 8 -9 -7 -19 -16 -22 -20 -3 -3 -17 -9 -32 -13 -26
-7 -26 -6 -23 35 3 47 17 66 36 54 17 -10 50 -13 44 -3 -3 4 4 9 15 12 13 3
25 -2 34 -15 13 -18 14 -17 14 17 0 29 -2 34 -14 24 -11 -9 -14 -8 -14 4 0 8
7 20 16 28 13 10 17 10 26 -2 8 -11 9 -11 4 3 -3 10 -1 20 4 23 15 9 12 36 -7
57 -18 20 -4 25 15 6 10 -10 14 -10 21 0 5 9 17 11 34 6 17 -4 27 -2 27 5 0 6
9 11 19 11 11 0 23 5 26 11 4 5 14 9 23 7 10 -2 33 4 52 13 34 17 35 17 38 -3
2 -11 -23 -72 -55 -135z m2815 100 c18 -61 34 -183 28 -209 -4 -13 -13 -24
-20 -24 -8 0 -17 -6 -19 -12 -4 -10 -8 -9 -16 2 -7 10 -11 11 -11 3 0 -7 -4
-13 -9 -13 -4 0 -6 11 -4 24 3 13 0 33 -6 45 -9 17 -9 20 3 15 10 -4 15 7 20
40 6 38 4 48 -14 66 -17 17 -19 25 -11 33 9 9 14 8 22 -3 9 -13 10 -13 8 0 -3
33 1 70 9 70 5 0 14 -17 20 -37z m-2620 0 c6 -21 5 -36 -7 -60 -13 -26 -20
-30 -42 -26 -35 7 -46 -13 -12 -21 19 -5 23 -10 14 -19 -15 -15 -14 -30 3 -24
7 3 18 1 24 -5 8 -8 17 -4 32 13 12 14 18 17 14 8 -3 -10 -1 -20 5 -24 6 -3
11 -1 11 5 0 6 8 20 19 31 10 11 17 28 15 37 -3 11 4 21 21 29 14 6 25 10 25
8 0 -2 -11 -23 -25 -46 -29 -51 -30 -59 -10 -59 8 0 15 8 15 18 0 9 13 32 29
51 l28 35 42 -44 c32 -33 39 -48 35 -67 -5 -19 -1 -25 25 -34 17 -6 31 -15 31
-19 0 -9 -31 -24 -43 -21 -4 1 -7 -4 -6 -11 3 -29 -2 -37 -27 -40 -21 -2 -28
-9 -30 -32 -3 -33 -12 -45 -22 -31 -6 9 -38 11 -67 5 -13 -3 -11 -3 -65 5 -25
4 -50 11 -57 17 -7 5 -16 7 -22 4 -5 -4 -11 4 -13 16 -2 16 -9 22 -20 20 -10
-2 -18 2 -18 8 0 7 -8 9 -20 5 -15 -5 -20 -2 -20 10 0 10 5 15 13 12 6 -3 20
-8 30 -12 10 -4 17 -3 17 4 0 6 5 11 11 11 5 0 7 -5 4 -10 -6 -9 16 -40 28
-40 3 0 8 11 11 25 4 14 11 25 16 25 6 0 10 5 10 11 0 5 -4 8 -8 5 -4 -2 -28
0 -54 5 -34 8 -47 16 -52 32 -3 12 -1 24 5 27 17 11 -2 40 -24 37 -33 -3 -40
52 -11 88 22 28 23 28 49 11 15 -10 25 -13 21 -8 -8 13 13 20 37 14 11 -3 16
-10 12 -20 -4 -12 -3 -13 10 -2 14 12 14 15 0 36 -17 27 -19 34 -6 34 5 0 13
-12 19 -27z m2466 -318 c3 -8 12 -15 20 -15 19 0 54 -77 60 -131 2 -23 7 -43
9 -46 10 -9 32 12 32 30 0 9 3 17 8 17 4 0 16 0 26 0 11 0 22 -8 25 -17 19
-69 19 -68 5 -55 -20 19 -34 14 -16 -6 10 -10 17 -24 17 -31 0 -8 8 -11 20 -8
23 6 26 -5 8 -25 -8 -7 -13 -40 -14 -76 0 -37 -5 -67 -13 -75 -13 -12 -13 -6
2 77 1 5 -4 11 -10 13 -8 3 -13 -5 -13 -21 0 -31 -16 -34 -25 -5 -9 27 -17 18
-20 -23 -1 -18 -9 -50 -18 -70 -9 -21 -17 -43 -17 -50 -1 -7 -6 -23 -14 -36
-11 -20 -14 -21 -25 -9 -9 12 -8 22 7 48 13 24 17 49 15 84 -3 36 -1 46 6 35
18 -26 25 0 8 29 -9 16 -17 31 -17 34 0 7 55 1 68 -7 8 -5 12 0 12 13 0 11 5
23 10 26 18 11 10 23 -11 18 -18 -5 -20 -3 -15 18 3 13 3 18 0 11 -5 -10 -10
-9 -25 4 -10 9 -19 24 -19 32 0 25 -28 -5 -35 -38 -3 -16 -18 -36 -32 -45 -28
-19 -42 -13 -24 9 10 12 9 19 -8 37 -12 13 -21 26 -21 31 0 4 -6 8 -13 8 -7 0
-14 14 -15 32 -2 18 -5 34 -7 36 -8 8 -35 -20 -35 -37 0 -35 -22 -91 -35 -91
-9 0 -12 6 -9 15 4 8 1 15 -6 15 -7 0 -10 6 -7 14 3 8 3 17 -1 21 -4 4 -7 16
-7 28 0 26 -20 33 -29 10 -4 -10 -2 -19 3 -21 6 -2 9 -8 5 -13 -3 -5 -12 -2
-21 6 -13 13 -13 18 -2 32 8 9 12 27 10 41 -2 20 1 24 14 18 10 -3 23 -2 29 2
6 5 19 12 30 16 13 4 17 2 13 -8 -3 -8 0 -17 8 -19 8 -4 15 3 19 16 12 47 8
52 -44 55 -34 2 -50 -1 -50 -9 0 -7 -3 -10 -6 -6 -3 3 0 15 8 26 10 14 18 17
28 10 23 -14 60 -11 60 5 0 17 18 31 27 22 3 -3 0 -12 -7 -21 -7 -9 -10 -19
-6 -22 11 -12 41 12 44 36 4 24 27 28 36 6z m-1212 -234 l-30 -27 26 -12 c20
-9 29 -9 41 1 10 8 13 8 8 0 -4 -7 1 -14 13 -18 23 -7 27 -25 5 -25 -26 0 -16
-18 15 -29 17 -5 30 -15 30 -20 0 -14 -17 -14 -22 -1 -2 6 -13 2 -25 -9 -21
-20 -21 -20 -39 0 -9 10 -27 19 -40 19 -13 0 -26 5 -29 11 -4 5 -19 8 -33 4
-15 -3 -40 -8 -57 -11 -16 -3 -33 -10 -37 -16 -4 -8 -10 -9 -20 -1 -22 17
-191 11 -210 -8 -11 -10 -27 -14 -48 -11 -20 3 -27 7 -20 12 9 6 7 11 -7 19
-11 5 -22 9 -24 8 -2 -1 5 6 16 15 23 20 35 23 35 8 0 -5 5 -10 10 -10 6 0 10
9 10 21 0 15 5 19 15 15 8 -3 19 3 25 12 8 14 11 14 19 3 6 -10 10 -10 16 -1
4 7 18 9 35 5 17 -4 39 -1 52 7 13 7 30 14 38 15 8 1 43 7 78 13 47 9 67 9 75
1 14 -14 37 -14 37 -1 0 6 -9 10 -20 10 -11 0 -20 5 -20 10 0 6 15 10 33 10
17 0 39 4 47 9 28 19 30 -1 2 -28z m872 -447 c5 -12 9 -14 20 -5 10 8 16 8 25
-3 7 -8 23 -17 37 -20 17 -5 24 -12 20 -22 -5 -12 -2 -12 15 -3 27 14 36 4 15
-16 -9 -9 -16 -21 -16 -26 0 -5 -15 -18 -32 -29 -29 -18 -30 -20 -10 -20 12 0
22 4 22 9 0 10 31 24 38 17 2 -3 -3 -12 -11 -21 -9 -8 -14 -22 -11 -29 3 -8 1
-17 -5 -21 -6 -3 -14 1 -17 9 -9 23 -47 21 -42 -1 2 -10 10 -17 18 -15 9 2 9
-4 -4 -23 -12 -19 -13 -25 -3 -25 7 0 18 5 25 12 6 6 15 9 18 5 4 -4 -4 -15
-17 -26 -13 -11 -20 -20 -15 -21 5 0 -3 -9 -18 -21 -14 -11 -31 -17 -37 -13
-7 4 -9 3 -6 -3 4 -6 0 -16 -8 -23 -20 -17 -19 -31 3 -23 15 6 15 5 3 -10 -7
-9 -18 -17 -23 -17 -16 0 -99 -52 -93 -58 3 -3 11 0 17 6 24 24 31 11 8 -13
-24 -26 -54 -33 -65 -15 -10 16 -25 12 -25 -7 0 -15 -4 -14 -19 6 -10 14 -16
32 -13 40 3 9 -8 3 -25 -12 -34 -32 -42 -25 -38 33 1 19 -2 40 -6 46 -14 18 7
64 30 64 21 0 31 18 31 55 0 30 10 55 21 55 6 0 5 -8 -1 -19 -12 -24 -13 -31
-2 -31 5 0 15 11 22 25 12 23 14 23 26 7 12 -15 13 -14 14 11 0 15 5 27 10 27
6 0 10 -7 10 -15 0 -17 16 -20 25 -5 4 6 9 8 13 6 4 -2 8 16 9 41 2 51 10 65
24 40 6 -9 17 -17 26 -17 9 0 13 -6 9 -15 -4 -13 -2 -14 14 -5 11 6 20 17 20
25 0 7 4 17 10 20 5 3 7 0 4 -8 -3 -8 -1 -18 4 -21 13 -8 23 19 16 39 -4 10
-14 13 -30 9 -18 -5 -24 -2 -24 9 0 9 -7 23 -16 31 -10 10 -11 16 -3 16 9 0 8
4 -1 15 -7 9 -8 15 -2 15 5 0 13 -7 16 -16z m-2009 -174 c-4 -14 -2 -20 8 -20
9 0 18 -6 20 -12 3 -8 6 -5 6 6 1 12 6 16 17 12 9 -3 21 -6 27 -6 7 0 20 -18
30 -40 13 -31 24 -42 47 -47 17 -3 30 -9 30 -14 0 -12 47 -11 55 1 3 5 -8 16
-25 25 -18 9 -30 23 -30 36 0 11 -4 17 -10 14 -5 -3 -10 -2 -10 4 0 5 -10 13
-22 17 -22 7 -48 27 -48 38 0 3 12 -1 28 -8 179 -89 278 -130 291 -122 6 4 11
0 11 -9 0 -9 4 -14 9 -10 5 3 13 -4 16 -16 6 -17 9 -19 16 -8 7 11 9 11 9 -3
0 -9 8 -22 18 -28 14 -10 13 -11 -11 -7 -21 3 -25 1 -17 -9 15 -17 -23 -29
-49 -14 -16 8 -19 8 -15 -3 4 -10 -8 -16 -42 -21 -27 -3 -52 -2 -57 3 -5 5
-15 7 -23 4 -7 -2 -21 0 -31 7 -15 10 -14 10 10 5 15 -3 27 -1 27 5 0 5 -4 10
-9 10 -5 0 -19 16 -32 36 -20 32 -24 35 -34 21 -7 -9 -15 -14 -18 -10 -4 3 -7
1 -7 -5 0 -12 -73 10 -97 29 -10 9 -13 8 -13 0 0 -7 -5 -9 -10 -6 -6 4 -7 12
-4 18 4 7 4 9 -1 5 -4 -4 -21 4 -37 17 -16 14 -34 25 -39 25 -6 0 -7 5 -4 10
4 6 1 18 -6 26 -10 13 -10 17 1 24 7 4 10 15 7 24 -4 10 -1 16 9 16 11 0 13
-6 9 -20z m2313 -10 c-7 -10 -27 -26 -46 -36 -20 -11 -44 -23 -54 -29 -10 -5
-18 -13 -18 -17 0 -11 8 -10 30 2 13 7 21 6 30 -5 14 -17 1 -25 -39 -22 -13 1
-26 -4 -29 -11 -3 -11 0 -12 17 -3 18 10 23 9 30 -11 16 -43 -123 -158 -195
-162 -11 -1 -39 -16 -62 -35 -43 -34 -60 -34 -19 0 17 14 19 18 6 19 -9 0 -22
-7 -29 -15 -7 -9 -29 -15 -51 -15 -21 0 -41 -5 -44 -10 -7 -12 -25 -4 -25 11
0 5 7 9 16 9 9 0 23 8 31 18 14 16 14 16 9 0 -8 -27 10 -22 51 15 51 43 129
97 142 97 14 0 90 40 97 51 3 5 0 9 -6 9 -6 0 -4 10 5 24 16 24 15 25 -10 38
-24 13 -25 16 -10 28 14 12 18 12 26 -1 7 -10 8 -4 4 18 -6 29 -4 32 12 26 10
-3 20 -10 23 -15 4 -4 21 2 39 15 18 12 43 23 56 23 20 2 22 -1 13 -16z
m-1728 -215 c17 -2 37 -8 46 -13 9 -5 25 -7 34 -5 10 3 29 -7 45 -21 22 -21
30 -23 46 -13 18 11 17 13 -14 39 -17 16 -27 28 -22 28 6 0 15 -4 20 -9 6 -5
35 -19 65 -32 30 -13 61 -31 68 -41 7 -10 18 -16 23 -12 6 4 6 11 -2 20 -18
22 -5 16 27 -11 19 -17 36 -24 51 -20 15 3 30 -4 51 -25 24 -23 31 -26 36 -15
9 24 23 17 30 -15 3 -16 11 -30 18 -30 8 0 22 -16 32 -35 11 -21 27 -35 38
-35 10 0 19 -7 19 -15 1 -8 2 -21 3 -27 0 -7 8 -13 16 -13 8 0 15 -9 15 -20 0
-12 7 -20 17 -20 9 0 25 -8 35 -18 11 -9 25 -17 31 -17 6 0 9 -7 6 -15 -4 -10
0 -15 12 -15 9 0 14 -3 11 -6 -11 -12 33 -63 48 -57 8 3 15 0 15 -7 0 -6 4 -9
9 -5 5 3 12 1 16 -4 11 -19 68 -42 76 -30 3 6 9 -3 11 -20 3 -18 0 -35 -6 -38
-16 -10 -139 -11 -165 -1 -18 6 -22 5 -18 -6 8 -19 -47 -26 -78 -10 -21 11
-25 11 -25 -2 0 -10 -8 -14 -22 -12 -17 2 -24 11 -26 33 l-4 30 23 -20 c16
-14 19 -15 11 -3 -8 9 -20 40 -27 69 -8 29 -23 58 -35 66 -11 8 -29 31 -40 51
-25 47 -55 82 -70 82 -6 0 -20 20 -31 45 -11 25 -29 50 -41 56 -17 9 -20 9
-15 -4 5 -12 1 -13 -26 -3 -41 14 -59 36 -45 54 6 7 17 11 25 8 7 -3 13 1 13
8 0 8 3 16 8 19 4 2 2 2 -5 1 -7 -2 -15 1 -18 6 -4 6 -19 10 -34 10 -15 0 -31
4 -36 8 -6 5 -21 6 -35 1 -14 -4 -19 -7 -12 -8 6 -1 12 -6 12 -13 0 -7 -7 -5
-17 5 -10 8 -31 19 -48 23 -35 8 -57 23 -50 34 2 4 -27 11 -66 14 -88 9 -130
23 -109 36 8 5 23 7 33 4 10 -3 31 -7 47 -9z"/>
<path d="M2350 3770 c-19 -5 -38 -6 -42 -4 -3 2 -27 -7 -53 -21 -25 -14 -49
-24 -53 -21 -8 5 -86 -13 -161 -37 -24 -7 -40 -16 -35 -19 5 -3 17 -3 26 1 9
3 60 4 114 1 81 -4 100 -2 123 13 14 9 34 15 44 13 14 -3 16 0 12 15 -4 13 -2
19 8 19 8 0 17 7 21 15 3 8 12 15 21 15 8 0 15 5 15 10 0 6 -1 10 -2 9 -2 -1
-19 -5 -38 -9z"/>
<path d="M2020 3589 c-42 -10 -66 -20 -116 -46 -44 -22 -46 -24 -16 -19 18 3
32 1 32 -4 0 -6 7 -10 16 -10 9 0 14 -6 11 -12 -2 -8 -17 -12 -37 -10 -27 3
-32 1 -27 -12 4 -9 1 -15 -5 -13 -7 1 -13 -5 -14 -13 0 -8 -2 -23 -2 -33 -1
-10 -7 -15 -12 -12 -6 4 -8 15 -5 26 7 19 -10 26 -30 11 -13 -9 -16 -42 -4
-42 5 0 9 -6 9 -13 0 -13 84 -15 115 -3 10 3 15 -1 16 -12 0 -10 3 -12 6 -5 8
22 43 -5 43 -33 0 -15 4 -23 11 -19 6 4 8 13 5 21 -6 16 5 19 20 5 5 -6 20 0
38 15 34 30 28 41 -14 24 -28 -12 -34 -11 -53 8 -19 19 -19 22 -4 22 20 0 23
16 5 23 -7 3 4 6 25 6 32 1 37 4 37 25 0 14 5 28 10 31 16 10 12 23 -7 28 -10
2 3 3 29 3 27 -1 48 -4 48 -8 0 -5 -7 -8 -15 -8 -24 0 -18 -18 8 -23 19 -3 18
-5 -10 -12 -55 -13 -37 -26 25 -19 47 5 62 3 74 -10 21 -20 34 -20 42 -1 4 10
-1 15 -15 15 -11 0 -18 4 -14 10 9 15 35 0 51 -31 10 -20 22 -29 39 -29 14 0
25 5 25 10 0 6 -8 10 -19 10 -10 0 -24 7 -31 15 -14 17 -8 19 18 6 9 -5 30
-14 46 -21 24 -9 27 -13 15 -20 -9 -6 -1 -7 24 -3 25 4 37 2 37 -6 0 -11 20
-12 142 -2 4 1 5 8 1 17 -4 12 0 14 23 8 37 -9 42 -13 25 -23 -10 -7 -10 -10
-1 -16 7 -4 16 -1 21 6 7 11 9 11 9 -2 0 -19 51 -33 61 -17 3 5 5 23 3 40 -4
31 -4 31 16 13 16 -14 17 -20 8 -26 -8 -5 -5 -8 10 -6 17 1 21 6 16 22 -9 26
-35 46 -53 40 -7 -3 -20 3 -28 12 -10 13 -16 15 -19 6 -7 -15 -54 -18 -54 -3
0 6 6 10 13 10 16 1 -34 29 -52 30 -11 0 -9 -4 5 -15 30 -23 -5 -19 -40 4 -19
13 -39 18 -56 15 -26 -6 -144 29 -167 48 -7 6 -13 6 -13 2 0 -14 34 -32 74
-40 48 -8 37 -19 -17 -16 -40 2 -41 2 -22 -13 11 -8 25 -13 32 -11 7 3 15 0
19 -6 5 -8 -5 -8 -32 -3 -36 7 -66 12 -88 14 -4 1 -6 7 -3 15 3 8 1 17 -6 20
-8 3 -6 10 7 20 17 14 17 16 2 32 -14 13 -39 17 -129 18 -62 1 -123 -1 -137
-5z"/>
<path d="M1289 3399 c-12 -8 -12 -10 1 -18 12 -8 11 -11 -5 -17 -11 -4 -27
-13 -37 -21 -9 -8 -19 -10 -22 -5 -3 5 6 14 19 20 14 7 25 17 25 23 0 6 -21
-1 -46 -16 -36 -21 -48 -24 -60 -15 -11 10 -14 9 -14 -5 0 -13 -6 -16 -27 -12
-29 5 -53 0 -53 -13 0 -5 11 -7 24 -6 17 2 23 -1 19 -11 -4 -9 0 -11 13 -6 11
3 21 10 24 13 9 12 59 20 64 11 4 -5 7 -21 8 -35 2 -27 12 -34 23 -16 3 6 1
10 -4 10 -6 0 -11 7 -11 15 0 13 4 14 21 4 17 -8 27 -8 46 2 19 10 26 10 32 1
5 -9 16 -3 38 20 17 18 39 38 49 45 18 11 17 11 -4 6 -12 -3 -25 -9 -28 -14
-8 -14 -24 -11 -19 4 6 17 -58 48 -76 36z"/>
</g>
</svg>
